<?xml version="1.0" encoding="utf-8"?>
<!-- Generator: Adobe Illustrator 16.0.0, SVG Export Plug-In . SVG Version: 6.00 Build 0)  -->
<!DOCTYPE svg PUBLIC "-//W3C//DTD SVG 1.1//EN" "http://www.w3.org/Graphics/SVG/1.1/DTD/svg11.dtd">
<svg version="1.1" id="Group_1_1_" xmlns="http://www.w3.org/2000/svg" xmlns:xlink="http://www.w3.org/1999/xlink" x="0px" y="0px"
	 width="18px" height="16px" viewBox="0 0 18 16" enable-background="new 0 0 18 16" xml:space="preserve">
<g id="Shape_7_copy">
	<g>
		<path fill-rule="evenodd" clip-rule="evenodd" fill="#FFFFFF" d="M6.815,6.191H2.458c-0.202,0-0.365,0.164-0.365,0.366
			s0.163,0.366,0.365,0.366h4.357c0.202,0,0.365-0.164,0.365-0.366S7.017,6.191,6.815,6.191z M6.815,8.321H2.458
			c-0.202,0-0.365,0.163-0.365,0.365s0.163,0.366,0.365,0.366h4.357c0.202,0,0.365-0.164,0.365-0.366S7.017,8.321,6.815,8.321z
			 M6.815,10.45H2.458c-0.202,0-0.365,0.164-0.365,0.366s0.163,0.365,0.365,0.365h4.357c0.202,0,0.365-0.163,0.365-0.365
			S7.017,10.45,6.815,10.45z M15.718,2.41v-1.27c0-0.172-0.066-0.333-0.187-0.452c-0.117-0.119-0.283-0.188-0.451-0.188h-3.469
			c-0.352,0-0.638,0.286-0.638,0.639v1.259c-0.847,0.155-1.567,0.404-1.975,0.753C8.24,2.504,6.412,2.2,4.681,2.2
			C2.426,2.2,0,2.713,0,3.836v11.297c0,0.108,0.047,0.211,0.13,0.28c0.066,0.056,0.15,0.086,0.235,0.086
			c0.021,0,0.042-0.002,0.063-0.006c2.569-0.445,5.941-0.445,8.509,0c0.021,0.004,0.042-0.002,0.063-0.002s0.042,0.006,0.062,0.002
			c2.568-0.445,5.941-0.445,8.51,0c0.021,0.004,0.041,0.006,0.063,0.006c0.085,0,0.168-0.03,0.234-0.086
			c0.083-0.069,0.131-0.172,0.131-0.28V3.836C17.998,3.121,17.014,2.655,15.718,2.41z M8.633,14.703
			c-1.219-0.186-2.575-0.282-3.953-0.282c-1.376,0-2.733,0.097-3.951,0.282V3.836c0-0.263,1.384-0.903,3.951-0.903
			c2.568,0,3.953,0.641,3.953,0.903V14.703z M11.704,1.232h3.284v8.672l-1.643-1.643l-1.642,1.643V1.232z M17.268,14.703
			c-2.438-0.37-5.467-0.37-7.904,0V3.836c0-0.166,0.559-0.48,1.61-0.691v6.981c-0.001,0.26,0.153,0.491,0.394,0.592
			c0.078,0.033,0.16,0.049,0.244,0.049c0.17,0,0.33-0.066,0.451-0.187l1.283-1.284l1.283,1.283c0.178,0.179,0.465,0.235,0.694,0.14
			c0.078-0.032,0.147-0.079,0.208-0.139c0.12-0.121,0.187-0.281,0.187-0.453V3.156c1.015,0.211,1.55,0.518,1.55,0.68V14.703z"/>
	</g>
</g>
<g id="Shape_7_copy_2">
	<g>
		<path fill-rule="evenodd" clip-rule="evenodd" fill="#FFFFFF" d="M6.815,6.191H2.458c-0.202,0-0.365,0.164-0.365,0.366
			s0.163,0.366,0.365,0.366h4.357c0.202,0,0.365-0.164,0.365-0.366S7.017,6.191,6.815,6.191z M6.815,8.321H2.458
			c-0.202,0-0.365,0.163-0.365,0.365s0.163,0.366,0.365,0.366h4.357c0.202,0,0.365-0.164,0.365-0.366S7.017,8.321,6.815,8.321z
			 M6.815,10.45H2.458c-0.202,0-0.365,0.164-0.365,0.366s0.163,0.365,0.365,0.365h4.357c0.202,0,0.365-0.163,0.365-0.365
			S7.017,10.45,6.815,10.45z M15.718,2.41v-1.27c0-0.172-0.066-0.333-0.187-0.452c-0.117-0.119-0.283-0.188-0.451-0.188h-3.469
			c-0.352,0-0.638,0.286-0.638,0.639v1.259c-0.847,0.155-1.567,0.404-1.975,0.753C8.24,2.504,6.412,2.2,4.681,2.2
			C2.426,2.2,0,2.713,0,3.836v11.297c0,0.108,0.047,0.211,0.13,0.28c0.066,0.056,0.15,0.086,0.235,0.086
			c0.021,0,0.042-0.002,0.063-0.006c2.569-0.445,5.941-0.445,8.509,0c0.021,0.004,0.042-0.002,0.063-0.002s0.042,0.006,0.062,0.002
			c2.568-0.445,5.941-0.445,8.51,0c0.021,0.004,0.041,0.006,0.063,0.006c0.085,0,0.168-0.03,0.234-0.086
			c0.083-0.069,0.131-0.172,0.131-0.28V3.836C17.998,3.121,17.014,2.655,15.718,2.41z M8.633,14.703
			c-1.219-0.186-2.575-0.282-3.953-0.282c-1.376,0-2.733,0.097-3.951,0.282V3.836c0-0.263,1.384-0.903,3.951-0.903
			c2.568,0,3.953,0.641,3.953,0.903V14.703z M11.704,1.232h3.284v8.672l-1.643-1.643l-1.642,1.643V1.232z M17.268,14.703
			c-2.438-0.37-5.467-0.37-7.904,0V3.836c0-0.166,0.559-0.48,1.61-0.691v6.981c-0.001,0.26,0.153,0.491,0.394,0.592
			c0.078,0.033,0.16,0.049,0.244,0.049c0.17,0,0.33-0.066,0.451-0.187l1.283-1.284l1.283,1.283c0.178,0.179,0.465,0.235,0.694,0.14
			c0.078-0.032,0.147-0.079,0.208-0.139c0.12-0.121,0.187-0.281,0.187-0.453V3.156c1.015,0.211,1.55,0.518,1.55,0.68V14.703z"/>
	</g>
</g>
</svg>
