<?xml version="1.0" encoding="utf-8"?>
<!-- Generator: Adobe Illustrator 16.0.0, SVG Export Plug-In . SVG Version: 6.00 Build 0)  -->
<!DOCTYPE svg PUBLIC "-//W3C//DTD SVG 1.1//EN" "http://www.w3.org/Graphics/SVG/1.1/DTD/svg11.dtd">
<svg version="1.1" id="timer_1_" xmlns="http://www.w3.org/2000/svg" xmlns:xlink="http://www.w3.org/1999/xlink" x="0px" y="0px"
	 width="25px" height="29px" viewBox="0 0 25 29" enable-background="new 0 0 25 29" xml:space="preserve">
<g id="Shape_411">
	<g>
		<path fill-rule="evenodd" clip-rule="evenodd" fill="#A6A8AB" d="M14.057,0.645C7.63-0.234,1.636,4.433,0.694,11.059
			c-0.447,3.145,0.302,6.277,2.108,8.822C2.986,20.139,3.34,20.192,3.594,20c0.253-0.191,0.309-0.557,0.127-0.814
			c-1.633-2.3-2.31-5.132-1.906-7.974C2.666,5.226,8.084,1.005,13.893,1.8c5.809,0.794,9.842,6.31,8.992,12.294
			c-0.416,2.897-1.896,5.475-4.177,7.252c-2.175,1.695-4.827,2.459-7.51,2.193l2.847-3.811c0.191-0.256,0.146-0.622-0.1-0.816
			c-0.248-0.193-0.604-0.143-0.795,0.114l-3.655,4.893c-0.189,0.256-0.146,0.621,0.101,0.815l4.708,3.692
			c0.248,0.194,0.604,0.143,0.795-0.114c0.052-0.068,0.086-0.146,0.104-0.225c0.05-0.216-0.023-0.449-0.203-0.591l-3.527-2.765
			c2.832,0.182,5.613-0.67,7.912-2.461c2.25-1.753,3.797-4.208,4.43-6.991c0.078-0.34,0.141-0.684,0.191-1.033
			C24.946,7.626,20.482,1.524,14.057,0.645z"/>
	</g>
</g>
<g id="Shape_411_copy">
	<g>
		<path fill-rule="evenodd" clip-rule="evenodd" fill="#A6A8AB" d="M14.057,0.645C7.63-0.234,1.636,4.433,0.694,11.059
			c-0.447,3.145,0.302,6.277,2.108,8.822C2.986,20.139,3.34,20.192,3.594,20c0.253-0.191,0.309-0.557,0.127-0.814
			c-1.633-2.3-2.31-5.132-1.906-7.974C2.666,5.226,8.084,1.005,13.893,1.8c5.809,0.794,9.842,6.31,8.992,12.294
			c-0.416,2.897-1.896,5.475-4.177,7.252c-2.175,1.695-4.827,2.459-7.51,2.193l2.847-3.811c0.191-0.256,0.146-0.622-0.1-0.816
			c-0.248-0.193-0.604-0.143-0.795,0.114l-3.655,4.893c-0.189,0.256-0.146,0.621,0.101,0.815l4.708,3.692
			c0.248,0.194,0.604,0.143,0.795-0.114c0.052-0.068,0.086-0.146,0.104-0.225c0.05-0.216-0.023-0.449-0.203-0.591l-3.527-2.765
			c2.832,0.182,5.613-0.67,7.912-2.461c2.25-1.753,3.797-4.208,4.43-6.991c0.078-0.34,0.141-0.684,0.191-1.033
			C24.946,7.626,20.482,1.524,14.057,0.645z"/>
	</g>
</g>
<g id="Shape_412">
	<g>
		<rect x="12.956" y="5.646" fill-rule="evenodd" clip-rule="evenodd" fill="#A6A8AB" width="0.933" height="9.324"/>
	</g>
</g>
<g id="Shape_412_copy">
	<g>
		<rect x="12.956" y="5.646" fill-rule="evenodd" clip-rule="evenodd" fill="#A6A8AB" width="0.933" height="9.324"/>
	</g>
</g>
<g id="Shape_413">
	<g>
		
			<rect x="7.906" y="15.902" transform="matrix(0.8574 -0.5146 0.5146 0.8574 -6.9078 7.8005)" fill-rule="evenodd" clip-rule="evenodd" fill="#A6A8AB" width="5.437" height="0.932"/>
	</g>
</g>
<g id="Shape_413_copy">
	<g>
		
			<rect x="7.906" y="15.902" transform="matrix(0.8574 -0.5146 0.5146 0.8574 -6.9078 7.8005)" fill-rule="evenodd" clip-rule="evenodd" fill="#A6A8AB" width="5.437" height="0.932"/>
	</g>
</g>
</svg>
