<?xml version="1.0" encoding="utf-8"?>
<!-- Generator: Adobe Illustrator 16.0.0, SVG Export Plug-In . SVG Version: 6.00 Build 0)  -->
<!DOCTYPE svg PUBLIC "-//W3C//DTD SVG 1.1//EN" "http://www.w3.org/Graphics/SVG/1.1/DTD/svg11.dtd">
<svg version="1.1" id="Shape_6_1_" xmlns="http://www.w3.org/2000/svg" xmlns:xlink="http://www.w3.org/1999/xlink" x="0px" y="0px"
	 width="25px" height="25px" viewBox="0 0 25 25" enable-background="new 0 0 25 25" xml:space="preserve">
<g id="Shape_6">
	<g>
		<path fill-rule="evenodd" clip-rule="evenodd" fill="#FFFFFF" d="M24.639,6.344c-0.057-0.021-0.578-0.202-1.676-0.202
			c-1.578,0-4.235,0.373-8.279,2.004c1.557-1.478,4.507-3.518,9.102-3.764c0.268-0.014,0.473-0.242,0.458-0.51
			S23.998,3.4,23.732,3.414c-4.66,0.25-7.715,2.188-9.443,3.75c1.074-1.836,3.426-4.272,8.533-5.422
			c0.262-0.059,0.426-0.317,0.367-0.579c-0.059-0.261-0.316-0.425-0.58-0.366c-6.348,1.428-8.75,4.78-9.646,6.848
			c-0.896-2.067-3.298-5.42-9.646-6.848c-0.26-0.059-0.521,0.104-0.58,0.366C2.679,1.425,2.843,1.684,3.104,1.742
			c5.11,1.149,7.461,3.586,8.534,5.422c-1.728-1.561-4.782-3.5-9.444-3.75c-0.268-0.013-0.496,0.19-0.51,0.458
			C1.67,4.14,1.875,4.368,2.143,4.382c4.597,0.246,7.548,2.289,9.104,3.766C7.199,6.515,4.54,6.142,2.96,6.142
			c-1.097,0-1.62,0.182-1.676,0.202C1.079,6.42,0.95,6.625,0.97,6.844l1.301,13.867c0.024,0.249,0.233,0.438,0.483,0.438
			c0.002,0,0.005,0,0.008,0l0.225-0.002c4.68,0,8.668,2.363,9.546,2.922c0.044,0.062,0.099,0.116,0.169,0.152
			c0.071,0.037,0.148,0.055,0.225,0.055c0.012,0,0.023-0.004,0.035-0.005c0.011,0.001,0.022,0.005,0.034,0.005
			c0.076,0,0.154-0.019,0.225-0.055c0.07-0.037,0.126-0.091,0.17-0.153c0.877-0.56,4.859-2.921,9.546-2.921l0.225,0.002
			c0.003,0,0.006,0,0.009,0c0.25,0,0.459-0.189,0.482-0.438l1.301-13.867C24.975,6.625,24.845,6.42,24.639,6.344z M12.443,22.878
			c-1.545-0.896-5.078-2.641-9.248-2.697L1.976,7.178C2.196,7.144,2.521,7.11,2.96,7.11c1.683,0,4.685,0.457,9.482,2.6V22.878z
			 M22.729,20.181c-4.169,0.057-7.703,1.802-9.248,2.697V9.71c4.798-2.143,7.799-2.6,9.482-2.6c0.439,0,0.765,0.033,0.984,0.067
			L22.729,20.181z"/>
	</g>
</g>
</svg>
